# xmcd CD database file
#
# Track frame offsets:
#	150
#	25990
#	59625
#	81572
#	109355
#	128560
#	154542
#	194805
#	212890
#	231175
#
# Disc length: 3435 seconds
#
# Revision: 5
# Processed by: cddbd v1.5.2PL0 Copyright (c) Steve Scherf et al.
# Submitted via: CDex 1.70beta2
#
DISCID=940d690a
DTITLE=張學友 - 愛與交響曲
DYEAR=1996
DGENRE=Pop
TTITLE0=剎那愛
TTITLE1=任性
TTITLE2=歲月流情
TTITLE3=生命的插曲
TTITLE4=過敏世界
TTITLE5=妳的名字 我的姓氏
TTITLE6=莫等待/相識非偶然/大丈夫
TTITLE7=我哭了
TTITLE8=擁有
TTITLE9=祝福
EXTD=YEAR: 1996
EXTT0=
EXTT1=
EXTT2=
EXTT3=
EXTT4=
EXTT5=
EXTT6=
EXTT7=
EXTT8=
EXTT9=
PLAYORDER=
